
<svg width="516" height="537" viewBox="0 0 516 537" fill="none" xmlns="http://www.w3.org/2000/svg">
<rect x="165.087" y="340.824" width="45.9292" height="21.4084" fill="white"/>
<rect x="160.709" y="187.9" width="37.8884" height="21.3827" fill="white"/>
<rect x="277.251" y="353" width="41.2216" height="18.7371" transform="rotate(90 277.251 353)" fill="white"/>
<rect x="247.737" y="353.497" width="41.2216" height="18.7371" transform="rotate(90 247.737 353.497)" fill="white"/>
<path d="M197.417 362.34V187.34H270.417C281.584 187.34 291.001 189.006 298.667 192.34C306.334 195.673 312.084 200.673 315.917 207.34C319.917 213.84 321.917 221.84 321.917 231.34C321.917 240.84 319.251 248.923 313.917 255.59C308.751 262.256 301.501 266.84 292.167 269.34V264.34C300.001 266.006 306.834 269.006 312.667 273.34C318.501 277.506 323.001 282.756 326.167 289.09C329.501 295.423 331.167 302.673 331.167 310.84C331.167 319.173 329.834 326.59 327.167 333.09C324.667 339.423 320.834 344.756 315.667 349.09C310.667 353.423 304.584 356.756 297.417 359.09C290.251 361.256 282.084 362.34 272.917 362.34H197.417ZM224.417 336.34H271.417C278.251 336.34 284.001 335.34 288.667 333.34C293.501 331.34 297.167 328.423 299.667 324.59C302.334 320.59 303.667 315.84 303.667 310.34C303.667 305.173 302.251 300.756 299.417 297.09C296.751 293.423 292.917 290.673 287.917 288.84C282.917 286.84 277.001 285.84 270.167 285.84H224.417V336.34ZM224.417 259.84H268.917C273.917 259.84 278.334 258.84 282.167 256.84C286.167 254.84 289.251 252.09 291.417 248.59C293.751 245.09 294.917 241.09 294.917 236.59C294.917 229.09 292.417 223.34 287.417 219.34C282.417 215.34 275.251 213.34 265.917 213.34H224.417V259.84Z" fill="white"/>
<path d="M258 115.04C258 114.473 258.476 114.019 259.043 114.043C302.32 115.878 338.249 125.84 368.609 157.091C398.976 188.35 414.044 227.343 414.981 270.981C414.993 271.54 414.542 272 413.983 272H390.937C390.417 272 389.982 271.589 389.939 271.07C386.374 228.637 381.151 209.911 350.769 178.636C320.387 147.363 301.098 142.793 258.935 139.215C258.417 139.171 258.007 138.737 258.007 138.217L258 115.04Z" fill="white"/>
<path d="M251 435.96C251 436.528 250.524 436.982 249.957 436.958C206.402 435.123 170.242 425.162 139.687 393.909C109.126 362.65 93.9625 323.658 93.0194 280.019C93.0074 279.46 93.4579 279 94.0167 279L117.223 279C117.743 279 118.177 279.411 118.221 279.929C121.808 322.363 127.064 341.089 157.641 372.364C188.217 403.638 207.63 408.208 250.064 411.786C250.583 411.829 250.993 412.264 250.993 412.783L251 435.96Z" fill="white"/>
<path d="M94.0401 272C93.4724 272 93.0185 271.524 93.0423 270.957C94.8772 227.402 104.838 191.242 136.091 160.687C167.349 130.126 206.342 114.963 249.981 114.019C250.54 114.007 251 114.458 251 115.017L251 138.223C251 138.743 250.589 139.177 250.071 139.221C207.637 142.808 188.911 148.064 157.636 178.641C126.362 209.217 121.792 228.63 118.214 271.064C118.171 271.583 117.736 271.993 117.217 271.993L94.0401 272Z" fill="#B6B4CE" fill-opacity="0.5"/>
<path d="M413.96 279C414.528 279 414.982 279.476 414.958 280.043C413.135 323.598 403.237 359.758 372.182 390.313C341.123 420.873 302.379 436.036 259.019 436.98C258.46 436.993 258 436.542 258 435.983L258 412.777C258 412.257 258.411 411.823 258.929 411.779C301.09 408.191 319.698 402.934 350.773 372.359C381.849 341.783 386.39 322.371 389.945 279.936C389.989 279.418 390.423 279.007 390.943 279.007L413.96 279Z" fill="#B6B4CE" fill-opacity="0.5"/>
</svg>
